<?xml version="1.0" encoding="UTF-8"?>
<svg width="417px" height="142px" viewBox="0 0 417 142" version="1.1" xmlns="http://www.w3.org/2000/svg" xmlns:xlink="http://www.w3.org/1999/xlink">
    <!-- Generator: Sketch 43.2 (39069) - http://www.bohemiancoding.com/sketch -->
    <title>mboe-logo</title>
    <desc>Created with Sketch.</desc>
    <defs>
        <polygon id="path-1" points="0.230257296 77.2793177 49.0645455 77.2793177 49.0645455 0.606324703 0.230257296 0.606324703"></polygon>
    </defs>
    <g id="Meditations-page" stroke="none" stroke-width="1" fill="none" fill-rule="evenodd">
        <g id="Desktop-HD-Copy-18" transform="translate(-512.000000, -118.000000)">
            <g id="mboe-logo" transform="translate(512.000000, 118.000000)">
                <polygon id="Fill-1" fill="#FEFEFE" points="51.1993686 0 40.2722699 65.678936 0 12.8158079 4.26201046 91 12.2805564 88.9952771 9.47144125 38.9825711 9.65650587 38.9354337 44.8049719 83.9349462 54.8896123 27.6141564 55.0746769 27.5670191 75.9814541 73.0517688 84 71.0442731"></polygon>
                <g id="Group-7" transform="translate(130.000000, 7.000000)">
                    <g id="Group-4" transform="translate(0.000000, 57.705757)">
                        <mask id="mask-2" fill="white">
                            <use xlink:href="#path-1"></use>
                        </mask>
                        <g id="Clip-3"></g>
                        <path d="M16.2756394,40.7265318 L23.1149731,42.446209 C31.7328111,44.6104855 41.8294988,48.8523558 39.0965399,59.8974365 C36.4107488,70.7551703 26.597068,70.5957856 17.7905588,68.3839732 L9.92185676,66.4070436 L16.2756394,40.7265318 Z M0.230257296,71.792569 L16.6252362,75.9142016 C30.5841359,79.4206652 43.3222216,76.6048687 46.8237385,62.4419994 C48.9268683,53.9442778 45.8526363,45.0494925 37.9367665,40.8551581 C43.5081183,38.8446738 46.8764555,34.4769735 48.3025883,28.7167542 C51.8984409,14.179191 42.2928533,6.74962656 29.460432,3.52558148 L17.8432757,0.606324703 L0.230257296,71.792569 Z M23.8890803,9.94850564 L26.9827343,10.7258556 C36.6299405,13.1501809 43.0947062,15.9771624 40.4338863,26.7398246 C37.7009274,37.7877015 29.854422,36.9180761 20.9563518,34.6810978 L17.9570334,33.9289138 L23.8890803,9.94850564 Z" id="Fill-2" fill="#FEFEFE" mask="url(#mask-2)"></path>
                    </g>
                    <path d="M118.280764,3.05144563 C98.9003399,10.5481194 88.9118606,32.652262 96.3865726,52.2733585 C103.894579,71.9867304 125.888656,81.4044094 145.26908,73.9077356 C164.649505,66.4082656 174.740643,44.5781529 167.232636,24.864781 C159.760699,5.24368443 137.661189,-4.44522814 118.280764,3.05144563 M120.980428,10.1370746 C136.573554,4.10562169 153.709345,12.1699287 159.627519,27.7029473 C165.509624,43.1464867 157.982195,60.857763 142.569416,66.8221066 C127.156638,72.783654 109.80443,64.6969772 103.922325,49.2534377 C98.0069259,33.7204191 105.387302,16.1685276 120.980428,10.1370746" id="Fill-5" fill="#FEFEFE"></path>
                </g>
                <polygon id="Fill-8" fill="#FEFEFE" points="358 124 396 124 396 116.449043 366.163604 116.449043 366.163604 87.7921335 395.125827 87.7921335 395.125827 80.2383947 366.163604 80.2383947 366.163604 58.5537389 396 58.5537389 396 51 358 51"></polygon>
                <text id="©" font-family="FuturaStd-Book, Futura Std" font-size="13" font-weight="300" fill="#FFFFFF">
                    <tspan x="406" y="43">©</tspan>
                </text>
            </g>
        </g>
    </g>
</svg>