<?xml version="1.0" encoding="UTF-8"?>
<svg width="131px" height="36px" viewBox="0 0 131 36" version="1.1" xmlns="http://www.w3.org/2000/svg" xmlns:xlink="http://www.w3.org/1999/xlink">
    <!-- Generator: Sketch 43.2 (39069) - http://www.bohemiancoding.com/sketch -->
    <title>mindfulness-connected-logo</title>
    <desc>Created with Sketch.</desc>
    <defs></defs>
    <g id="Meditations-page" stroke="none" stroke-width="1" fill="none" fill-rule="evenodd">
        <g id="Desktop-HD-Copy-12" transform="translate(-94.000000, -48.000000)" fill="#FFFFFF">
            <g id="mindfulness-connected-logo" transform="translate(94.000000, 48.000000)">
                <path d="M15.0380211,17.9654206 C15.0380211,18.3565704 15.1100096,18.7313383 15.2417735,19.0776269 C15.6805849,20.3972535 14.9256951,21.7830798 13.5749437,22.21153 C12.2241923,22.6398962 10.773672,21.9176636 10.3350326,20.5982891 C10.0192982,19.7327357 9.87497725,18.856177 9.87497725,17.8851072 C9.87497725,14.7707784 11.6447583,12.0601168 14.2555228,10.6604289 C14.9837503,10.2329868 15.4609211,9.46606093 15.4609211,8.59034234 C15.4609211,7.25643408 14.3538297,6.1750594 12.988113,6.1750594 C12.5389806,6.1750594 12.1178868,6.2920011 11.7548482,6.49639704 C7.68006004,8.74970901 4.94079992,13.0031273 4.94079992,17.8814108 C4.94079992,23.1441233 8.1291924,27.6788065 12.721661,29.7450286 L12.8611656,29.8074479 C14.0196036,30.3772866 14.5384883,31.7368179 14.0201197,32.9168201 C13.4906561,34.1221093 12.0766031,34.6902679 10.8362856,34.2098156 C4.42053918,31.3764157 0,25.1336444 0,17.8814108 C0,8.00580187 8.19627842,-3.55271368e-15 18.3067448,-3.55271368e-15 C28.4466259,-3.55271368e-15 36.6428183,8.00580187 36.6428183,17.8814108 C36.6428183,25.1336444 32.2223651,31.3764157 25.8701784,34.1820084 C24.5662152,34.6902679 23.1521622,34.1221093 22.6227846,32.9168201 C22.104416,31.7368179 22.6233007,30.3772866 23.7817388,29.8074479 L23.9211573,29.7450286 C28.5137119,27.6788065 31.7021044,23.1441233 31.7021044,17.8814108 C31.7021044,13.0031273 28.9627583,8.74970901 24.9047417,6.50866248 C24.5250175,6.2920011 24.1038377,6.1750594 23.6547053,6.1750594 C22.2890746,6.1750594 21.1819832,7.25643408 21.1819832,8.59034234 C21.1819832,9.46606093 21.659154,10.2329868 22.3733622,10.6564804 C24.99806,12.0601168 26.7678411,14.7707784 26.7678411,17.8851072 C26.7678411,18.856177 26.6235201,19.7327357 26.3076137,20.597785 C25.8692323,21.9176636 24.418712,22.6398962 23.0678746,22.21153 C21.7171233,21.7830798 20.9622334,20.3972535 21.4008728,19.0777949 C21.5328947,18.7313383 21.6048832,18.3565704 21.6048832,17.9654206 C21.6048832,16.2021381 20.1413757,14.7726266 18.3360735,14.7726266 C16.5014426,14.7726266 15.0380211,16.2021381 15.0380211,17.9654206 Z" id="Fill-1"></path>
                <polygon id="Fill-3" points="43.6188191 16.1497108 46.277748 2.88422073 50.6138276 12.4737761 55.1054091 2.88422073 57.4943598 16.1497108 55.5389741 16.1497108 54.3199866 8.70181825 50.5811446 16.7171132 46.9486083 8.69383732 45.5905462 16.1497108"></polygon>
                <path d="M59.0687312,15.9470962 L60.9095546,15.9470962 L60.9095546,8.16358435 L59.0687312,8.16358435 L59.0687312,15.9470962 Z M58.7905822,4.92718921 C58.7905822,4.61282438 58.9078108,4.34113656 59.1424399,4.11204172 C59.3768109,3.88303089 59.6577982,3.76844147 59.9850576,3.76844147 C60.3176495,3.76844147 60.6013889,3.88303089 60.835932,4.11204172 C61.0703891,4.33584394 61.1877036,4.61022008 61.1877036,4.93508614 C61.1877036,5.26012021 61.0703891,5.53718467 60.835932,5.7661955 C60.6068934,5.99537435 60.3259062,6.10987976 59.9932283,6.10987976 C59.6605504,6.10987976 59.3768109,5.99537435 59.1424399,5.7661955 C58.9078108,5.53718467 58.7905822,5.25751591 58.7905822,4.92718921 L58.7905822,4.92718921 Z" id="Fill-5"></path>
                <path d="M62.583523,7.75262021 L64.4325172,7.75262021 L64.4325172,8.47182846 C65.076027,7.84855944 65.8015022,7.53688293 66.6087707,7.53688293 C67.535934,7.53688293 68.2585709,7.82192833 68.7767675,8.3919351 C69.2239217,8.8767559 69.4476278,9.66787657 69.4476278,10.7652971 L69.4476278,15.536132 L67.5987196,15.536132 L67.5987196,11.1888748 C67.5987196,10.4216969 67.4894898,9.89167879 67.2713742,9.59865247 C67.0586771,9.30033352 66.6713843,9.15104803 66.1096679,9.15104803 C65.498755,9.15104803 65.06519,9.34830314 64.808887,9.74247731 C64.5579164,10.1313589 64.4325172,10.8106625 64.4325172,11.78022 L64.4325172,15.536132 L62.583523,15.536132 L62.583523,7.75262021 Z" id="Fill-7"></path>
                <path d="M73.9475521,11.4657112 C73.9475521,12.2116346 74.1520785,12.8189417 74.5611312,13.2877166 C74.9811069,13.7619522 75.5101405,13.998944 76.1483178,13.998944 C76.8300151,13.998944 77.3808946,13.7699331 77.8009563,13.3117434 C78.220846,12.8375919 78.4308769,12.2356614 78.4308769,11.5056999 C78.4308769,10.7759064 78.220846,10.1738919 77.8009563,9.6996563 C77.3808946,9.236174 76.8355196,9.00439085 76.1646593,9.00439085 C75.5319004,9.00439085 75.0029529,9.23894633 74.5774727,9.70763723 C74.1574109,10.1818728 73.9475521,10.7678414 73.9475521,11.4657112 L73.9475521,11.4657112 Z M78.3163146,1.88422073 L80.1653087,1.88422073 L80.1653087,15.3814099 L78.3163146,15.3814099 L78.3163146,14.5663464 C77.5909254,15.2589236 76.7700677,15.6052121 75.8538274,15.6052121 C74.7628193,15.6052121 73.857588,15.2164146 73.1376173,14.4384834 C72.4229791,13.6446744 72.065875,12.6537784 72.065875,11.4657112 C72.065875,10.3043591 72.4229791,9.33480156 73.1376173,8.55687042 C73.846579,7.77373068 74.7383071,7.38216081 75.8128877,7.38216081 C76.7455555,7.38216081 77.5800025,7.7551645 78.3163146,8.50091987 L78.3163146,1.88422073 Z" id="Fill-8"></path>
                <path d="M84.0516539,9.49189996 L84.0516539,15.5972312 L82.2026598,15.5972312 L82.2026598,9.49189996 L81.548227,9.49189996 L81.548227,7.81371936 L82.2026598,7.81371936 L82.2026598,4.80902337 C82.2026598,3.82879654 82.3771695,3.1362194 82.7262748,2.73129197 C83.206198,2.16666182 83.9044087,1.88422073 84.820649,1.88422073 C85.1479944,1.88422073 85.5597134,1.97747166 86.05615,2.1638895 L86.05615,4.00185681 L85.8678791,3.90600158 C85.4696633,3.7089985 85.1424899,3.61028694 84.8861869,3.61028694 C84.5588415,3.61028694 84.3379736,3.72496037 84.2234974,3.9539712 C84.1089351,4.17768941 84.0516539,4.60924797 84.0516539,5.24856286 L84.0516539,7.81371936 L86.05615,7.81371936 L86.05615,9.49189996 L84.0516539,9.49189996 Z" id="Fill-9"></path>
                <path d="M89.0783756,7.53688293 L89.0783756,12.0040223 C89.0783756,13.2933213 89.5991524,13.9379288 90.640964,13.9379288 C91.6826896,13.9379288 92.2036384,13.2933213 92.2036384,12.0040223 L92.2036384,7.53688293 L94.0443758,7.53688293 L94.0443758,12.0439269 C94.0443758,12.6672799 93.9652486,13.205447 93.8071664,13.658176 C93.6544167,14.0631875 93.389943,14.4281262 93.0135731,14.7529923 C92.3917373,15.2804061 91.6008962,15.544113 90.640964,15.544113 C89.6864502,15.544113 88.8983614,15.2804061 88.2766115,14.7529923 C87.8947372,14.4281262 87.624845,14.0631875 87.4666768,13.658176 C87.313841,13.2960096 87.2376382,12.7579266 87.2376382,12.0439269 L87.2376382,7.53688293 L89.0783756,7.53688293 Z" id="Fill-10"></path>
                <polygon id="Fill-11" points="96.7199902 15.3814939 98.5607275 15.3814939 98.5607275 1.88422073 96.7199902 1.88422073"></polygon>
                <path d="M100.512931,7.75262021 L102.361839,7.75262021 L102.361839,8.47182846 C103.005349,7.84855944 103.730824,7.53688293 104.538093,7.53688293 C105.465256,7.53688293 106.187893,7.82192833 106.706175,8.3919351 C107.15333,8.8767559 107.377036,9.66787657 107.377036,10.7652971 L107.377036,15.536132 L105.528042,15.536132 L105.528042,11.1888748 C105.528042,10.4216969 105.418898,9.89167879 105.200782,9.59865247 C104.988085,9.30033352 104.600706,9.15104803 104.039076,9.15104803 C103.428163,9.15104803 102.994598,9.34830314 102.738209,9.74247731 C102.487238,10.1313589 102.361839,10.8106625 102.361839,11.78022 L102.361839,15.536132 L100.512931,15.536132 L100.512931,7.75262021 Z" id="Fill-12"></path>
                <path d="M113.842065,10.5975295 C113.585676,9.63855714 112.966592,9.15911297 111.9849,9.15911297 C111.761194,9.15911297 111.551249,9.19246488 111.354893,9.25900068 C111.158623,9.32570449 110.979899,9.42155972 110.819065,9.54673438 C110.658058,9.67190905 110.520446,9.82237067 110.405884,9.99820327 C110.291408,10.1739519 110.204024,10.3738113 110.144076,10.5975295 L113.842065,10.5975295 Z M115.731998,12.0679537 L110.021343,12.0679537 C110.070454,12.7072686 110.283151,13.2160322 110.659521,13.5942445 C111.03589,13.9672482 111.518566,14.1536661 112.107633,14.1536661 C112.565796,14.1536661 112.944746,14.0471416 113.244827,13.8340086 C113.539317,13.6209597 113.874747,13.2266175 114.251117,12.6513181 L115.805535,13.4983893 C115.565487,13.8979401 115.311851,14.2402802 115.044711,14.5252416 C114.777399,14.810287 114.491079,15.0446745 114.185665,15.228488 C113.88008,15.4123015 113.550154,15.5468013 113.195716,15.6320713 C112.841107,15.7171732 112.456652,15.7599342 112.042181,15.7599342 C110.853038,15.7599342 109.89861,15.3870986 109.178726,14.6410912 C108.458755,13.8899592 108.098813,12.8937705 108.098813,11.6524411 C108.098813,10.4217809 108.447746,9.42559219 109.145957,8.66362293 C109.849586,7.91249093 110.782254,7.53688293 111.944046,7.53688293 C113.116589,7.53688293 114.043839,7.90190569 114.725622,8.63169919 C115.401901,9.35628407 115.740083,10.3605377 115.740083,11.6443761 L115.731998,12.0679537 Z" id="Fill-13"></path>
                <path d="M122.751691,9.07921961 L121.230042,9.87034029 C120.989995,9.39089613 120.692752,9.15113204 120.338228,9.15113204 C120.169137,9.15113204 120.024558,9.20582245 119.904577,9.31495123 C119.784596,9.42424803 119.724649,9.56404041 119.724649,9.73449638 C119.724649,10.0329833 120.079173,10.328614 120.788221,10.6215563 C121.764408,11.0318604 122.421679,11.4100727 122.759948,11.7562772 C123.097958,12.1026498 123.267135,12.5688204 123.267135,13.1547891 C123.267135,13.9059211 122.983482,14.5346507 122.416347,15.040726 C121.865295,15.5201702 121.19994,15.7599342 120.420108,15.7599342 C119.08372,15.7599342 118.137462,15.1233917 117.581164,13.8500545 L119.151924,13.1387432 C119.370039,13.5117469 119.536464,13.7488227 119.651026,13.8500545 C119.874561,14.0525182 120.141873,14.1536661 120.452791,14.1536661 C121.07454,14.1536661 121.385458,13.8766856 121.385458,13.3225567 C121.385458,13.0029833 121.145325,12.7046643 120.665488,12.4275159 C120.479969,12.3370373 120.294536,12.249079 120.109104,12.163809 C119.923671,12.078707 119.735572,11.9908327 119.544635,11.9001861 C119.010011,11.6444601 118.633727,11.3887342 118.415611,11.1330082 C118.137462,10.8080581 117.998388,10.3897731 117.998388,9.87832123 C117.998388,9.20178997 118.235597,8.64245245 118.710188,8.20022464 C119.19553,7.75799684 119.784596,7.53688293 120.477389,7.53688293 C121.497182,7.53688293 122.25534,8.05110717 122.751691,9.07921961" id="Fill-14"></path>
                <path d="M130.337573,9.07921961 L128.815924,9.87034029 C128.575876,9.39089613 128.278634,9.15113204 127.92411,9.15113204 C127.755019,9.15113204 127.61044,9.20582245 127.490459,9.31495123 C127.370478,9.42424803 127.310531,9.56404041 127.310531,9.73449638 C127.310531,10.0329833 127.665055,10.328614 128.374102,10.6215563 C129.35029,11.0318604 130.007561,11.4100727 130.345829,11.7562772 C130.68384,12.1026498 130.853017,12.5688204 130.853017,13.1547891 C130.853017,13.9059211 130.569363,14.5346507 130.002229,15.040726 C129.451177,15.5201702 128.785821,15.7599342 128.005989,15.7599342 C126.669601,15.7599342 125.723344,15.1233917 125.167046,13.8500545 L126.737805,13.1387432 C126.955921,13.5117469 127.122346,13.7488227 127.236908,13.8500545 C127.460442,14.0525182 127.727754,14.1536661 128.038672,14.1536661 C128.660422,14.1536661 128.97134,13.8766856 128.97134,13.3225567 C128.97134,13.0029833 128.731206,12.7046643 128.251369,12.4275159 C128.065851,12.3370373 127.880418,12.249079 127.694985,12.163809 C127.509553,12.078707 127.321454,11.9908327 127.130516,11.9001861 C126.595892,11.6444601 126.219609,11.3887342 126.001493,11.1330082 C125.723344,10.8080581 125.58427,10.3897731 125.58427,9.87832123 C125.58427,9.20178997 125.821479,8.64245245 126.29607,8.20022464 C126.781411,7.75799684 127.370478,7.53688293 128.06327,7.53688293 C129.083064,7.53688293 129.841222,8.05110717 130.337573,9.07921961" id="Fill-15"></path>
                <path d="M53.5835884,23.5136706 L53.5835884,25.719265 C52.4818294,24.8190155 51.341969,24.3687228 50.1638351,24.3687228 C48.8657205,24.3687228 47.7720462,24.8243081 46.8831564,25.7352268 C45.988504,26.6410209 45.5413498,27.7490267 45.5413498,29.0596643 C45.5413498,30.3541719 45.988504,31.4463839 46.8831564,32.3360481 C47.7775507,33.2257963 48.8738912,33.6705444 50.1720059,33.6705444 C50.8428662,33.6705444 51.4127534,33.564104 51.8818395,33.350971 C52.143647,33.2443625 52.4150014,33.1005377 52.6959027,32.9194125 C52.9768039,32.7383712 53.2726705,32.5197776 53.5835884,32.2640517 L53.5835884,34.5097188 C52.4926664,35.1117333 51.3473015,35.4126565 50.1474077,35.4126565 C48.3421055,35.4126565 46.801277,34.7972844 45.5250084,33.5667083 C44.2540722,32.3254629 43.6188191,30.8284075 43.6188191,29.0756262 C43.6188191,27.5040541 44.1505189,26.1028539 45.2140904,24.8721937 C46.523128,23.3646371 48.2167062,22.6106488 50.2947389,22.6106488 C51.4290948,22.6106488 52.5254353,22.9117401 53.5835884,23.5136706" id="Fill-16"></path>
                <path d="M56.8793185,30.4625566 C56.8793185,31.2404878 57.0920156,31.8557758 57.5174099,32.3085889 C57.9537271,32.7668626 58.5291188,32.9957894 59.243671,32.9957894 C59.9636416,32.9957894 60.5390333,32.7693829 60.9699321,32.3164858 C61.4007448,31.8638408 61.6162801,31.2590539 61.6162801,30.5025453 C61.6162801,29.7461207 61.4007448,29.1413339 60.9699321,28.6885208 C60.5335289,28.2304151 59.9581372,28.0012363 59.243671,28.0012363 C58.5401277,28.0012363 57.9700685,28.2304151 57.5338373,28.6885208 C57.0974341,29.1467945 56.8793185,29.7381398 56.8793185,30.4625566 M54.9976415,30.4306329 C54.9976415,29.3065812 55.4093605,28.3502132 56.2329705,27.5617808 C57.0564944,26.7733485 58.0601186,26.3790903 59.243671,26.3790903 C60.4326418,26.3790903 61.4416844,26.7759528 62.2707989,27.5696777 C63.0889044,28.3636548 63.4979572,29.338505 63.4979572,30.4945644 C63.4979572,31.6612931 63.0861522,32.6389156 62.2626282,33.427348 C61.4335137,34.2104037 60.4163003,34.6019736 59.210988,34.6019736 C58.0165127,34.6019736 57.0155548,34.2025068 56.2084582,33.4033211 C55.4011897,32.6149728 54.9976415,31.6239927 54.9976415,30.4306329" id="Fill-17"></path>
                <path d="M64.4799934,26.5948275 L66.3289876,26.5948275 L66.3289876,27.3140358 C66.9724974,26.6907668 67.6979726,26.3790903 68.5052411,26.3790903 C69.4324044,26.3790903 70.1550413,26.6640516 70.6732379,27.2340584 C71.1203921,27.7189632 71.3440982,28.5100839 71.3440982,29.6075045 L71.3440982,34.3782554 L69.49519,34.3782554 L69.49519,30.0309981 C69.49519,29.2639042 69.3859602,28.7338861 69.1678446,28.4407758 C68.9551475,28.1424568 68.5678547,27.9932554 68.0061383,27.9932554 C67.3952254,27.9932554 66.9616604,28.1904265 66.7053574,28.5846846 C66.4543868,28.9735662 66.3289876,29.6527858 66.3289876,30.6223434 L66.3289876,34.3782554 L64.4799934,34.3782554 L64.4799934,26.5948275 Z" id="Fill-18"></path>
                <path d="M73.9623454,26.5948275 L75.8113395,26.5948275 L75.8113395,27.3140358 C76.4548494,26.6907668 77.1803245,26.3790903 77.9875931,26.3790903 C78.9147564,26.3790903 79.6373933,26.6640516 80.1555899,27.2340584 C80.602744,27.7189632 80.8264501,28.5100839 80.8264501,29.6075045 L80.8264501,34.3782554 L78.977542,34.3782554 L78.977542,30.0309981 C78.977542,29.2639042 78.8683122,28.7338861 78.6501966,28.4407758 C78.4374995,28.1424568 78.0502067,27.9932554 77.4884902,27.9932554 C76.8775773,27.9932554 76.4440124,28.1904265 76.1877094,28.5846846 C75.9367388,28.9735662 75.8113395,29.6527858 75.8113395,30.6223434 L75.8113395,34.3782554 L73.9623454,34.3782554 L73.9623454,26.5948275 Z" id="Fill-19"></path>
                <path d="M87.291479,29.4397368 C87.03509,28.4807645 86.4160064,28.0013203 85.4343141,28.0013203 C85.2106081,28.0013203 85.0006632,28.0345882 84.8043075,28.101208 C84.6080379,28.1678278 84.4293139,28.2637671 84.2684794,28.3888577 C84.1074729,28.5141164 83.9698606,28.664578 83.8552983,28.8404106 C83.740822,29.0162432 83.6534381,29.2160186 83.5934908,29.4397368 L87.291479,29.4397368 Z M89.1814128,30.9101611 L83.4707577,30.9101611 C83.5198681,31.549392 83.7325653,32.0582396 84.1089351,32.4364519 C84.4853049,32.8093716 84.9679803,32.9958734 85.5570472,32.9958734 C86.0152103,32.9958734 86.3941604,32.8894329 86.6942414,32.676216 C86.9887318,32.463167 87.3241619,32.0689088 87.7005318,31.4934414 L89.2549494,32.3405966 C89.0149019,32.7401475 88.7612651,33.0824876 88.4941251,33.3674489 C88.2268131,33.6524943 87.9404933,33.8869658 87.6350799,34.0706953 C87.3294944,34.2545089 86.9995688,34.3889246 86.6451309,34.4742786 C86.2905211,34.5593806 85.9060665,34.6020576 85.4915953,34.6020576 C84.3024525,34.6020576 83.3480247,34.2293059 82.62814,33.4833825 C81.9081693,32.7320825 81.548227,31.7359778 81.548227,30.4946484 C81.548227,29.2639042 81.8971603,28.2677995 82.5953711,27.5058303 C83.2990003,26.7546983 84.2316681,26.3790903 85.3934605,26.3790903 C86.5660038,26.3790903 87.4932531,26.744029 88.1750364,27.4739065 C88.8513152,28.1984914 89.1894975,29.2027451 89.1894975,30.4865834 L89.1814128,30.9101611 Z" id="Fill-20"></path>
                <path d="M97.608364,26.9304469 L97.608364,29.3197708 C97.1883022,28.8190721 96.8119324,28.4755559 96.4793405,28.28897 C96.1520811,28.0971755 95.7676266,28.0012363 95.3258049,28.0012363 C94.6330986,28.0012363 94.0577069,28.2383121 93.5995438,28.7124636 C93.1413806,29.1866992 92.912256,29.7807328 92.912256,30.4945644 C92.912256,31.2244419 93.1332099,31.8238521 93.5749456,32.292543 C94.0221858,32.7614019 94.592159,32.9957894 95.2848652,32.9957894 C95.7266869,32.9957894 96.1165599,32.9026225 96.4548283,32.7161206 C96.7820877,32.5350794 97.1665423,32.1834142 97.608364,31.6612931 L97.608364,34.0346551 C96.8611288,34.4128674 96.1138937,34.6019736 95.3667446,34.6019736 C94.1339958,34.6019736 93.1031932,34.213176 92.2741647,33.4353289 C91.4450502,32.6521051 91.030579,31.6799432 91.030579,30.5185072 C91.030579,29.3571551 91.4505547,28.3768443 92.2905062,27.5777427 C93.1304576,26.7785571 94.1612603,26.3790903 95.383086,26.3790903 C96.1685086,26.3790903 96.9101532,26.5628198 97.608364,26.9304469" id="Fill-21"></path>
                <polygon id="Fill-22" points="101.242621 29.0259403 101.242621 35.1312716 99.4017971 35.1312716 99.4017971 29.0259403 98.6164605 29.0259403 98.6164605 27.3477597 99.4017971 27.3477597 99.4017971 24.4948695 101.242621 24.4948695 101.242621 27.3477597 102.674305 27.3477597 102.674305 29.0259403"></polygon>
                <path d="M110.049124,29.4397368 C109.792735,28.4807645 109.173651,28.0013203 108.191959,28.0013203 C107.968253,28.0013203 107.758308,28.0345882 107.561952,28.101208 C107.365683,28.1678278 107.186959,28.2637671 107.026124,28.3888577 C106.865118,28.5141164 106.727505,28.664578 106.612943,28.8404106 C106.498467,29.0162432 106.411083,29.2160186 106.351135,29.4397368 L110.049124,29.4397368 Z M111.939058,30.9101611 L106.228402,30.9101611 C106.277513,31.549392 106.49021,32.0582396 106.86658,32.4364519 C107.24295,32.8093716 107.725625,32.9958734 108.314692,32.9958734 C108.772855,32.9958734 109.151805,32.8894329 109.451886,32.676216 C109.746377,32.463167 110.081807,32.0689088 110.458177,31.4934414 L112.012594,32.3405966 C111.772547,32.7401475 111.51891,33.0824876 111.25177,33.3674489 C110.984458,33.6524943 110.698138,33.8869658 110.392725,34.0706953 C110.087139,34.2545089 109.757214,34.3889246 109.402776,34.4742786 C109.048166,34.5593806 108.663711,34.6020576 108.24924,34.6020576 C107.060097,34.6020576 106.105669,34.2293059 105.385785,33.4833825 C104.665814,32.7320825 104.305872,31.7359778 104.305872,30.4946484 C104.305872,29.2639042 104.654805,28.2677995 105.353016,27.5058303 C106.056645,26.7546983 106.989313,26.3790903 108.151105,26.3790903 C109.323649,26.3790903 110.250898,26.744029 110.932681,27.4739065 C111.60896,28.1984914 111.947142,29.2027451 111.947142,30.4865834 L111.939058,30.9101611 Z" id="Fill-23"></path>
                <path d="M115.669901,30.3079185 C115.669901,31.0538419 115.874427,31.661149 116.283566,32.129924 C116.703456,32.6041595 117.232575,32.8411513 117.870667,32.8411513 C118.55245,32.8411513 119.103243,32.6122245 119.523305,32.1539508 C119.943281,31.6797992 120.153312,31.0778687 120.153312,30.3479072 C120.153312,29.6180297 119.943281,29.0160992 119.523305,28.5418636 C119.103243,28.0783813 118.557954,27.8465982 117.887008,27.8465982 C117.254335,27.8465982 116.725302,28.0810696 116.299907,28.5498446 C115.87976,29.0240801 115.669901,29.6100488 115.669901,30.3079185 L115.669901,30.3079185 Z M120.038749,20.7264281 L121.887743,20.7264281 L121.887743,34.2236172 L120.038749,34.2236172 L120.038749,33.4085538 C119.313274,34.1011309 118.492416,34.4473354 117.576176,34.4473354 C116.485168,34.4473354 115.579937,34.0586219 114.859966,33.2806908 C114.145328,32.4868818 113.788224,31.4960697 113.788224,30.3079185 C113.788224,29.1465665 114.145328,28.1770089 114.859966,27.3990778 C115.568928,26.616022 116.460656,26.2244521 117.535236,26.2244521 C118.467904,26.2244521 119.302437,26.5973718 120.038749,27.3432112 L120.038749,20.7264281 Z" id="Fill-24"></path>
            </g>
        </g>
    </g>
</svg>